<mxfile host="app.diagrams.net" modified="2023-10-15T02:20:05.040Z" agent="Mozilla/5.0 (Macintosh; Intel Mac OS X 10_15_7) AppleWebKit/537.36 (KHTML, like Gecko) Chrome/118.0.0.0 Safari/537.36 Edg/118.0.2088.46" version="22.0.4" etag="I8eMGT7NsWdeVrJvXVAx" type="github">
  <diagram name="Page-1" id="skANfoxluUdcbjers6hS">
    <mxGraphModel>
      <root>
        <mxCell id="0" />
        <mxCell id="1" parent="0" />
      </root>
    </mxGraphModel>
  </diagram>
</mxfile>
